<svg viewBox="0 0 100 100" height="30" width="30" fill="none" xmlns="http://www.w3.org/2000/svg">
    <path fill-rule="evenodd" clip-rule="evenodd" d="M44.019 88.199C23.227 88.396 5.674 71.386 5.674 50.197s17.282-38.47 38.47-38.47 38.47 17.282 38.47 38.47c0 10.925-4.595 20.812-12.3 27.903h24.011v10.173L44.019 88.199 44.019 88.199zM22.931 32.124c-4.234 4.124-7.021 10.784-7.021 18.074 0 15.551 12.684 28.235 28.235 28.235 15.065 0 27.439-11.903 27.938-24.663-5.137 9.719-13.66 14.769-23.325 14.769-15.086 0-27.391-12.304-27.391-27.391C21.367 38.32 21.8 35.589 22.931 32.124L22.931 32.124zM66.366 46.597c-1.625 7.444-9.035 13.483-17.809 13.483-10.4 0-18.882-8.482-18.882-18.882 0-6.5 3.313-12.251 7.501-15.252-2 2.808-2.653 5.508-2.653 8.355 0 10.124 8.257 18.381 18.381 18.381C57.965 52.681 62.56 50.617 66.366 46.597L66.366 46.597zM52.615 23.727c6.22 0 11.294 5.073 11.294 11.294 0 6.22-5.073 11.294-11.294 11.294-6.221 0-11.294-5.073-11.294-11.294C41.321 28.801 46.395 23.727 52.615 23.727L52.615 23.727z" fill="url(#paint0_linear_883_4378)"/>
<defs>
<linearGradient id="paint0_linear_883_4378" x1="15" y1="0" x2="15" y2="100" gradientUnits="userSpaceOnUse">
<stop stop-color="#DD7EFF"/>
<stop offset="0.461458" stop-color="#685DFF"/>
<stop offset="1" stop-color="#2152FF"/>
</linearGradient>
</defs>
</svg>
